<svg width="40" height="40" viewBox="0 0 40 40" fill="none" xmlns="http://www.w3.org/2000/svg">
<circle cx="20" cy="20" r="20" fill="#F9F9F9"/>
<path d="M24.1288 25H15.7048V23.146L20.0068 18.718C20.9668 17.698 21.4468 16.858 21.4468 16.198C21.4468 15.706 21.2908 15.31 20.9788 15.01C20.6788 14.71 20.2888 14.56 19.8088 14.56C18.8488 14.56 18.1468 15.052 17.7028 16.036L15.6148 14.812C15.9988 13.96 16.5568 13.306 17.2888 12.85C18.0328 12.382 18.8608 12.148 19.7728 12.148C20.9128 12.148 21.8908 12.508 22.7068 13.228C23.5228 13.936 23.9308 14.896 23.9308 16.108C23.9308 17.416 23.2408 18.76 21.8608 20.14L19.3948 22.606H24.1288V25Z" fill="#1F1F1F"/>
</svg>
